<svg width="128" height="128" viewBox="0 0 128 128" fill="none" xmlns="http://www.w3.org/2000/svg">
<path d="M0 8C0 3.58172 3.58172 0 8 0H120C124.418 0 128 3.58172 128 8V120C128 124.418 124.418 128 120 128H8C3.58172 128 0 124.418 0 120V8Z" fill="#DC3DCB"/>
<path d="M47 56C47 60.4183 43.4183 64 39 64H24C19.5817 64 16 60.4183 16 56L16 32L31.5 16L47 32L47 56Z" fill="#001728"/>
<path d="M15 72C15 67.5817 18.5817 64 23 64H38C42.4183 64 46 67.5817 46 72V96L30.5 112L15 96V72Z" fill="#001728"/>
<path d="M56 96L40 112L96 112L112 96L112 64L80 64L56 80L56 96Z" fill="#001728"/>
<path d="M56 32L40 16L96 16L112 32L112 64L80 64L56 48L56 32Z" fill="#001728"/>
</svg>
