<!--
  - Copyright (c) 2025. Xodium.
  - All rights reserved.
  -->

<svg width="128" height="128" viewBox="0 0 128 128" fill="none" xmlns="http://www.w3.org/2000/svg">
    <path d="M59 69H38.3137C36.192 69 34.1571 69.8429 32.6569 71.3431L13.3431 90.6569C11.8429 92.1571 11 94.192 11 96.3137V117H31.6863C33.808 117 35.8429 116.157 37.3431 114.657L56.6569 95.3431C58.1571 93.8429 59 91.808 59 89.6863V69Z"
          fill="url(#paint0_linear_55_4)"/>
    <path d="M69 59H89.6863C91.808 59 93.8429 58.1571 95.3431 56.6569L114.657 37.3431C116.157 35.8429 117 33.808 117 31.6863V11L96.3137 11C94.192 11 92.1571 11.8429 90.6569 13.3431L71.3431 32.6569C69.8429 34.1571 69 36.192 69 38.3137V59Z"
          fill="url(#paint1_linear_55_4)"/>
    <path d="M69 69H89.6863C91.808 69 93.8429 69.8429 95.3431 71.3431L114.657 90.6569C116.157 92.1571 117 94.192 117 96.3137V117H96.3137C94.192 117 92.1571 116.157 90.6569 114.657L71.3431 95.3431C69.8429 93.8429 69 91.808 69 89.6863V69Z"
          fill="url(#paint2_linear_55_4)"/>
    <path d="M59 59H38.3137C36.192 59 34.1571 58.1571 32.6569 56.6569L13.3431 37.3431C11.8429 35.8429 11 33.808 11 31.6863L11 11L31.6863 11C33.808 11 35.8429 11.8429 37.3431 13.3431L56.6569 32.6569C58.1571 34.1571 59 36.192 59 38.3137V59Z"
          fill="url(#paint3_linear_55_4)"/>
    <defs>
        <linearGradient id="paint0_linear_55_4" x1="35" y1="69" x2="35" y2="117" gradientUnits="userSpaceOnUse">
            <stop stop-color="#CB2D3E"/>
            <stop offset="1" stop-color="#EF473A"/>
        </linearGradient>
        <linearGradient id="paint1_linear_55_4" x1="93" y1="59" x2="93" y2="11" gradientUnits="userSpaceOnUse">
            <stop stop-color="#CB2D3E"/>
            <stop offset="1" stop-color="#EF473A"/>
        </linearGradient>
        <linearGradient id="paint2_linear_55_4" x1="93" y1="69" x2="93" y2="117" gradientUnits="userSpaceOnUse">
            <stop stop-color="#CB2D3E"/>
            <stop offset="1" stop-color="#EF473A"/>
        </linearGradient>
        <linearGradient id="paint3_linear_55_4" x1="35" y1="59" x2="35" y2="11" gradientUnits="userSpaceOnUse">
            <stop stop-color="#CB2D3E"/>
            <stop offset="1" stop-color="#EF473A"/>
        </linearGradient>
    </defs>
</svg>
