<svg xmlns="http://www.w3.org/2000/svg" width="128" height="128" fill="none">
    <path fill="#fff"
        d="M63 65H42.314a8 8 0 0 0-5.657 2.343L17.343 86.657A8 8 0 0 0 15 92.314V113h20.686a8 8 0 0 0 5.657-2.343l19.314-19.314A8 8 0 0 0 63 85.686zm2-2h20.686a8 8 0 0 0 5.657-2.343l19.314-19.314A8 8 0 0 0 113 35.686V15H92.314a8 8 0 0 0-5.657 2.343L67.343 36.657A8 8 0 0 0 65 42.314zm0 2h20.686a8 8 0 0 1 5.657 2.343l19.314 19.314A8 8 0 0 1 113 92.314V113H92.314a8 8 0 0 1-5.657-2.343L67.343 91.343A8 8 0 0 1 65 85.686zm-2-2H42.314a8 8 0 0 1-5.657-2.343L17.343 41.343A8 8 0 0 1 15 35.686V15h20.686a8 8 0 0 1 5.657 2.343l19.314 19.314A8 8 0 0 1 63 42.314z" />
</svg>