<svg xmlns="http://www.w3.org/2000/svg" width="128" height="128" fill="none" viewBox="0 0 128 128"><g id="frame"><g id="icon" filter="url(#filter0_d_0_1)"><g id="gear"><g id="outer"><path id="subtract" fill="url(#paint0_linear_0_1)" fill-rule="evenodd" d="M30.4385 42.2303L39.6626 43.2124C40.743 41.9453 41.9282 40.7565 43.2121 39.6604L42.2299 30.4348C44.2418 29.1331 46.3996 27.9946 48.6927 27.0448C50.9857 26.095 53.3165 25.3742 55.6596 24.872L61.4885 32.09C63.1714 31.9572 64.8502 31.9598 66.5101 32.0918L72.3381 24.8749C77.113 25.897 81.6706 27.7848 85.7697 30.4385L84.7876 39.6626C86.0547 40.743 87.2435 41.9282 88.3396 43.2121L97.5652 42.2299C98.8669 44.2418 100.005 46.3996 100.955 48.6927C101.905 50.9857 102.626 53.3165 103.128 55.6596L95.91 61.4885C96.0428 63.1714 96.0401 64.8502 95.9082 66.5101L103.125 72.3381C102.103 77.113 100.215 81.6706 97.5615 85.7697L88.3374 84.7876C87.257 86.0547 86.0718 87.2435 84.7879 88.3396L85.7701 97.5652C83.7582 98.8669 81.6004 100.005 79.3073 100.955C77.0143 101.905 74.6835 102.626 72.3404 103.128L66.5115 95.91C64.8286 96.0428 63.1498 96.0401 61.4899 95.9082L55.6619 103.125C50.887 102.103 46.3294 100.215 42.2303 97.5615L43.2124 88.3374C41.9453 87.257 40.7565 86.0718 39.6604 84.7879L30.4348 85.7701C29.1331 83.7582 27.9946 81.6004 27.0448 79.3073C26.095 77.0143 25.3742 74.6835 24.872 72.3404L32.09 66.5115C31.9572 64.8286 31.9598 63.1498 32.0918 61.4899L24.8749 55.6619C25.897 50.887 27.7848 46.3294 30.4385 42.2303ZM64 88C77.2548 88 88 77.2548 88 64C88 50.7452 77.2548 40 64 40C50.7452 40 40 50.7452 40 64C40 77.2548 50.7452 88 64 88Z" clip-rule="evenodd"/></g><g id="inner"><path id="subtract_2" fill="url(#paint1_linear_0_1)" fill-rule="evenodd" d="M64 88C77.2548 88 88 77.2548 88 64C88 50.7452 77.2548 40 64 40C50.7452 40 40 50.7452 40 64C40 77.2548 50.7452 88 64 88ZM64 80C72.8366 80 80 72.8366 80 64C80 55.1634 72.8366 48 64 48C55.1634 48 48 55.1634 48 64C48 72.8366 55.1634 80 64 80Z" clip-rule="evenodd"/></g><g id="core"><circle id="ellipse" cx="64" cy="64" r="16" fill="url(#paint2_radial_0_1)"/></g></g></g></g><defs><filter id="filter0_d_0_1" width="86.256" height="92.256" x="20.872" y="24.872" color-interpolation-filters="sRGB" filterUnits="userSpaceOnUse"><feFlood flood-opacity="0" result="BackgroundImageFix"/><feColorMatrix in="SourceAlpha" result="hardAlpha" type="matrix" values="0 0 0 0 0 0 0 0 0 0 0 0 0 0 0 0 0 0 127 0"/><feOffset dy="10"/><feGaussianBlur stdDeviation="2"/><feComposite in2="hardAlpha" operator="out"/><feColorMatrix type="matrix" values="0 0 0 0 0 0 0 0 0 0 0 0 0 0 0 0 0 0 0.25 0"/><feBlend in2="BackgroundImageFix" mode="normal" result="effect1_dropShadow_0_1"/><feBlend in="SourceGraphic" in2="effect1_dropShadow_0_1" mode="normal" result="shape"/></filter><linearGradient id="paint0_linear_0_1" x1="64" x2="64" y1="24" y2="104" gradientUnits="userSpaceOnUse"><stop stop-color="#6C90B8"/><stop offset="1" stop-color="#304052"/></linearGradient><linearGradient id="paint1_linear_0_1" x1="64" x2="64" y1="40" y2="88" gradientUnits="userSpaceOnUse"><stop stop-color="#516675"/><stop offset="1" stop-color="#97BEDB"/></linearGradient><radialGradient id="paint2_radial_0_1" cx="0" cy="0" r="1" gradientTransform="translate(64 64) rotate(90) scale(16)" gradientUnits="userSpaceOnUse"><stop stop-color="#0F0"/><stop offset="1" stop-color="#090"/></radialGradient></defs></svg>