<svg width="128" height="128" viewBox="0 0 128 128" fill="none" xmlns="http://www.w3.org/2000/svg">
<path d="M63 65H42.3137C40.192 65 38.1571 65.8429 36.6569 67.3431L17.3431 86.6569C15.8429 88.1571 15 90.192 15 92.3137V113H35.6863C37.808 113 39.8429 112.157 41.3431 110.657L60.6569 91.3431C62.1571 89.8429 63 87.808 63 85.6863V65Z" fill="white"/>
<path d="M65 63H85.6863C87.808 63 89.8429 62.1571 91.3431 60.6569L110.657 41.3431C112.157 39.8429 113 37.808 113 35.6863V15L92.3137 15C90.192 15 88.1571 15.8429 86.6569 17.3431L67.3431 36.6569C65.8429 38.1571 65 40.192 65 42.3137V63Z" fill="white"/>
<path d="M65 65H85.6863C87.808 65 89.8429 65.8429 91.3431 67.3431L110.657 86.6569C112.157 88.1571 113 90.192 113 92.3137V113H92.3137C90.192 113 88.1571 112.157 86.6569 110.657L67.3431 91.3431C65.8429 89.8429 65 87.808 65 85.6863V65Z" fill="white"/>
<path d="M63 63H42.3137C40.192 63 38.1571 62.1571 36.6569 60.6569L17.3431 41.3431C15.8429 39.8429 15 37.808 15 35.6863L15 15L35.6863 15C37.808 15 39.8429 15.8429 41.3431 17.3431L60.6569 36.6569C62.1571 38.1571 63 40.192 63 42.3137V63Z" fill="white"/>
</svg>
